<?xml version="1.0" encoding="utf-8" standalone="no"?>
<!DOCTYPE svg PUBLIC "-//W3C//DTD SVG 1.1//EN"
  "http://www.w3.org/Graphics/SVG/1.1/DTD/svg11.dtd">
<!-- Created with matplotlib (http://matplotlib.org/) -->
<svg height="720pt" version="1.1" viewBox="0 0 1008 720" width="1008pt" xmlns="http://www.w3.org/2000/svg" xmlns:xlink="http://www.w3.org/1999/xlink">
 <defs>
  <style type="text/css">
*{stroke-linecap:butt;stroke-linejoin:round;}
  </style>
 </defs>
 <g id="figure_1">
  <g id="patch_1">
   <path d="
M0 720
L1008 720
L1008 0
L0 0
z
" style="fill:#ffffff;"/>
  </g>
  <g id="axes_1">
   <g id="patch_2">
    <path d="
M126 630
L907.2 630
L907.2 72
L126 72
z
" style="fill:#ffffff;"/>
   </g>
   <g id="line2d_1">
    <path clip-path="url(#pd91b92aa32)" d="
M126 625.571
L136.234 625.473
L137.284 625.284
L137.825 625.08
L138.388 624.731
L138.992 624.13
L139.674 623.077
L140.545 621.166
L141.457 618.6
L142.418 615.44
L145.659 603.705
L152.377 578.213
L170.687 508.212
L179.841 474.126
L188.996 441.102
L198.151 409.381
L202.728 394.075
L211.883 364.692
L221.037 337.094
L230.192 311.444
L243.924 276.946
L257.656 247.609
L271.388 223.805
L285.12 205.836
L298.852 193.928
L312.584 188.228
L326.316 188.807
L340.048 195.657
L353.78 208.691
L367.512 227.741
L381.244 252.566
L394.976 282.847
L408.708 318.191
L422.441 358.134
L436.173 402.131
L449.905 449.544
L459.059 482.67
L486.523 584.448
L491.101 599.887
L493.508 607.11
L495.727 612.597
L498.814 618.575
L500.671 620.785
L501.571 621.612
L502.543 622.343
L503.623 622.999
L504.895 623.599
L506.447 624.147
L508.206 624.589
L511.915 625.131
L515.489 625.367
L519.999 625.437
L521.106 625.327
L522.28 624.931
L522.893 624.48
L523.513 623.742
L524.267 622.392
L525.109 620.331
L525.999 617.645
L528.616 608.394
L533.054 591.628
L565.096 468.327
L578.828 418.165
L592.56 370.944
L606.292 327.329
L620.024 287.902
L633.756 253.176
L647.488 223.595
L661.22 199.535
L674.952 181.298
L688.684 169.115
L702.416 163.138
L716.148 163.44
L729.88 170.019
L743.612 182.791
L757.344 201.596
L771.076 226.195
L784.808 256.277
L793.963 279.189
L803.118 304.237
L807.695 317.517
L812.272 331.274
L816.85 345.489
L821.427 360.14
L826.004 375.204
L835.159 406.477
L844.314 439.103
L853.469 472.842
L867.201 524.863
L876.355 559.704
L880.933 576.685
L885.51 592.871
L888.844 603.676
L891.022 609.751
L893.34 615.103
L894.529 617.352
L896.134 619.645
L897.02 620.638
L897.952 621.514
L898.906 622.253
L899.979 622.922
L901.226 623.53
L902.753 624.084
L904.721 624.591
L908.394 625.13
L908.394 625.13" style="fill:none;stroke:#0000ff;stroke-linecap:square;"/>
   </g>
   <g id="line2d_2">
    <path clip-path="url(#pd91b92aa32)" d="
M126 625.571
L140.195 625.499
L141.329 625.36
L142.661 624.933
L143.502 624.429
L144.584 623.447
L145.993 621.616
L147.597 618.758
L149.875 613.409
L153.586 602.671
L157.546 589.417
L162.123 572.676
L171.278 537.514
L180.433 502.262
L189.588 467.907
L198.742 434.812
L207.897 403.197
L217.052 373.239
L226.206 345.1
L239.938 306.629
L253.67 273.043
L267.402 244.733
L281.134 222.017
L294.866 205.132
L308.598 194.22
L317.753 190.28
L322.331 189.301
L326.908 188.973
L331.485 189.282
L336.063 190.211
L340.64 191.736
L345.217 193.82
L349.795 196.417
L354.372 199.461
L358.949 202.87
L363.527 206.548
L372.681 214.33
L389.186 228.502
L402.918 239.966
L416.65 251.099
L430.382 261.911
L439.536 268.945
L457.846 282.607
L471.578 292.509
L485.31 302.126
L499.042 311.464
L508.197 317.54
L521.929 326.433
L535.661 335.07
L549.393 343.457
L567.702 354.265
L584.646 363.903
L590.249 366.941
L591.568 367.499
L592.409 367.708
L593.683 367.738
L594.953 367.353
L596.43 366.305
L598.082 364.373
L600.484 360.313
L604.526 351.506
L609.104 339.836
L618.258 314.263
L622.836 301.459
L627.413 288.99
L636.568 265.449
L650.3 234.25
L664.032 208.448
L677.764 188.355
L691.496 174.172
L705.228 165.998
L709.805 164.607
L714.383 163.875
L718.96 163.793
L723.537 164.349
L728.115 165.523
L732.692 167.292
L737.269 169.619
L741.847 172.456
L746.424 175.738
L751.001 179.381
L755.579 183.291
L765.399 192.135
L778.89 204.394
L791.333 215.422
L805.065 227.264
L818.797 238.764
L832.529 249.932
L846.261 260.777
L859.993 271.31
L873.725 281.538
L887.457 291.471
L901.189 301.117
L910.344 307.393
L910.344 307.393" style="fill:none;stroke:#008000;stroke-linecap:square;"/>
   </g>
   <g id="matplotlib.axis_1">
    <g id="xtick_1">
     <g id="line2d_3">
      <path clip-path="url(#pd91b92aa32)" d="
M126 630
L126 72" style="fill:none;stroke:#000000;stroke-dasharray:1.000000,3.000000;stroke-dashoffset:0.0;stroke-width:0.5;"/>
     </g>
     <g id="line2d_4">
      <defs>
       <path d="
M0 0
L0 -4" id="mc7db9fdffb" style="stroke:#000000;stroke-width:0.5;"/>
      </defs>
      <g>
       <use style="stroke:#000000;stroke-width:0.5;" x="126.0" xlink:href="#mc7db9fdffb" y="630.0"/>
      </g>
     </g>
     <g id="line2d_5">
      <defs>
       <path d="
M0 0
L0 4" id="m5a7d422ac3" style="stroke:#000000;stroke-width:0.5;"/>
      </defs>
      <g>
       <use style="stroke:#000000;stroke-width:0.5;" x="126.0" xlink:href="#m5a7d422ac3" y="72.0"/>
      </g>
     </g>
     <g id="text_1">
      <!-- $0.000$ -->
      <defs>
       <path d="
M18.4062 4.79688
C18.4062 7.6875 16 9.67188 13.5938 9.67188
C10.7031 9.67188 8.70312 7.28125 8.70312 4.89062
C8.70312 2 11.0938 0 13.5 0
C16.4062 0 18.4062 2.39062 18.4062 4.79688" id="CMMI12-58"/>
       <path d="
M42 31.6406
C42 37.75 41.9062 48.125 37.7031 56.1094
C34 63.1094 28.0938 65.5938 22.9062 65.5938
C18.0938 65.5938 12 63.4062 8.20312 56.2031
C4.20312 48.7188 3.79688 39.4375 3.79688 31.6406
C3.79688 25.9531 3.90625 17.2812 7 9.67188
C11.2969 -0.609375 19 -2 22.9062 -2
C27.5 -2 34.5 -0.109375 38.5938 9.375
C41.5938 16.2812 42 24.3594 42 31.6406
M22.9062 -0.40625
C16.5 -0.40625 12.7031 5.07812 11.2969 12.6875
C10.2031 18.5625 10.2031 27.1562 10.2031 32.75
C10.2031 40.4375 10.2031 46.8281 11.5 52.9219
C13.4062 61.3906 19 64 22.9062 64
C27 64 32.2969 61.2969 34.2031 53.125
C35.5 47.4375 35.5938 40.7344 35.5938 32.75
C35.5938 26.25 35.5938 18.2656 34.4062 12.375
C32.2969 1.48438 26.4062 -0.40625 22.9062 -0.40625" id="CMR17-48"/>
      </defs>
      <g transform="translate(105.014091444 648.196640528)scale(0.2 -0.2)">
       <use transform="scale(0.9962640099626402)" xlink:href="#CMR17-48"/>
       <use transform="translate(45.69047711706103 0.0)scale(0.9962640099626402)" xlink:href="#CMMI12-58"/>
       <use transform="translate(72.78765420688046 0.0)scale(0.9962640099626402)" xlink:href="#CMR17-48"/>
       <use transform="translate(118.47813132394148 0.0)scale(0.9962640099626402)" xlink:href="#CMR17-48"/>
       <use transform="translate(164.1686084410025 0.0)scale(0.9962640099626402)" xlink:href="#CMR17-48"/>
      </g>
     </g>
    </g>
    <g id="xtick_2">
     <g id="line2d_6">
      <path clip-path="url(#pd91b92aa32)" d="
M219.744 630
L219.744 72" style="fill:none;stroke:#000000;stroke-dasharray:1.000000,3.000000;stroke-dashoffset:0.0;stroke-width:0.5;"/>
     </g>
     <g id="line2d_7">
      <g>
       <use style="stroke:#000000;stroke-width:0.5;" x="219.744" xlink:href="#mc7db9fdffb" y="630.0"/>
      </g>
     </g>
     <g id="line2d_8">
      <g>
       <use style="stroke:#000000;stroke-width:0.5;" x="219.744" xlink:href="#m5a7d422ac3" y="72.0"/>
      </g>
     </g>
     <g id="text_2">
      <!-- $0.002$ -->
      <defs>
       <path d="
M41.7031 15.4531
L39.9062 15.4531
C38.9062 8.375 38.0938 7.17188 37.7031 6.5625
C37.2031 5.76562 30 5.76562 28.5938 5.76562
L9.40625 5.76562
C13 9.67188 20 16.75 28.5 24.9531
C34.5938 30.7344 41.7031 37.5312 41.7031 47.4219
C41.7031 59.2188 32.2969 66 21.7969 66
C10.7969 66 4.09375 56.3125 4.09375 47.3438
C4.09375 43.4375 7 42.9375 8.20312 42.9375
C9.20312 42.9375 12.2031 43.5469 12.2031 47.0312
C12.2031 50.1094 9.59375 51 8.20312 51
C7.59375 51 7 50.9062 6.59375 50.7031
C8.5 59.2188 14.2969 63.4062 20.4062 63.4062
C29.0938 63.4062 34.7969 56.5156 34.7969 47.4219
C34.7969 38.7344 29.7031 31.25 24 24.75
L4.09375 2.28125
L4.09375 0
L39.2969 0
z
" id="CMR17-50"/>
      </defs>
      <g transform="translate(198.758091444 648.196640528)scale(0.2 -0.2)">
       <use transform="scale(0.9962640099626402)" xlink:href="#CMR17-48"/>
       <use transform="translate(45.69047711706103 0.0)scale(0.9962640099626402)" xlink:href="#CMMI12-58"/>
       <use transform="translate(72.78765420688046 0.0)scale(0.9962640099626402)" xlink:href="#CMR17-48"/>
       <use transform="translate(118.47813132394148 0.0)scale(0.9962640099626402)" xlink:href="#CMR17-48"/>
       <use transform="translate(164.1686084410025 0.0)scale(0.9962640099626402)" xlink:href="#CMR17-50"/>
      </g>
     </g>
    </g>
    <g id="xtick_3">
     <g id="line2d_9">
      <path clip-path="url(#pd91b92aa32)" d="
M313.488 630
L313.488 72" style="fill:none;stroke:#000000;stroke-dasharray:1.000000,3.000000;stroke-dashoffset:0.0;stroke-width:0.5;"/>
     </g>
     <g id="line2d_10">
      <g>
       <use style="stroke:#000000;stroke-width:0.5;" x="313.488" xlink:href="#mc7db9fdffb" y="630.0"/>
      </g>
     </g>
     <g id="line2d_11">
      <g>
       <use style="stroke:#000000;stroke-width:0.5;" x="313.488" xlink:href="#m5a7d422ac3" y="72.0"/>
      </g>
     </g>
     <g id="text_3">
      <!-- $0.004$ -->
      <defs>
       <path d="
M33.5938 64.3281
C33.5938 66.4062 33.5 66.5 31.7031 66.5
L2 19.5938
L2 17
L27.7969 17
L27.7969 7.14062
C27.7969 3.5 27.5938 2.5 20.5938 2.5
L18.7031 2.5
L18.7031 0
C21.9062 0 27.2969 0 30.7031 0
C34.0938 0 39.5 0 42.7031 0
L42.7031 2.5
L40.7969 2.5
C33.7969 2.5 33.5938 3.5 33.5938 7.14062
L33.5938 17
L43.7969 17
L43.7969 19.5938
L33.5938 19.5938
z

M28.0938 57.7656
L28.0938 19.5938
L4 19.5938
z
" id="CMR17-52"/>
      </defs>
      <g transform="translate(292.502091444 648.196640528)scale(0.2 -0.2)">
       <use transform="scale(0.9962640099626402)" xlink:href="#CMR17-48"/>
       <use transform="translate(45.69047711706103 0.0)scale(0.9962640099626402)" xlink:href="#CMMI12-58"/>
       <use transform="translate(72.78765420688046 0.0)scale(0.9962640099626402)" xlink:href="#CMR17-48"/>
       <use transform="translate(118.47813132394148 0.0)scale(0.9962640099626402)" xlink:href="#CMR17-48"/>
       <use transform="translate(164.1686084410025 0.0)scale(0.9962640099626402)" xlink:href="#CMR17-52"/>
      </g>
     </g>
    </g>
    <g id="xtick_4">
     <g id="line2d_12">
      <path clip-path="url(#pd91b92aa32)" d="
M407.232 630
L407.232 72" style="fill:none;stroke:#000000;stroke-dasharray:1.000000,3.000000;stroke-dashoffset:0.0;stroke-width:0.5;"/>
     </g>
     <g id="line2d_13">
      <g>
       <use style="stroke:#000000;stroke-width:0.5;" x="407.232" xlink:href="#mc7db9fdffb" y="630.0"/>
      </g>
     </g>
     <g id="line2d_14">
      <g>
       <use style="stroke:#000000;stroke-width:0.5;" x="407.232" xlink:href="#m5a7d422ac3" y="72.0"/>
      </g>
     </g>
     <g id="text_4">
      <!-- $0.006$ -->
      <defs>
       <path d="
M10.5938 34
C10.5938 57.6562 21.7969 63 28.2969 63
C30.4062 63 35.5 62.6406 37.5 59
C35.9062 59 32.9062 59 32.9062 55.5156
C32.9062 52.8281 35.0938 51.9219 36.5 51.9219
C37.4062 51.9219 40.0938 52.3125 40.0938 55.625
C40.0938 61.7812 35.0938 65.2969 28.2031 65.2969
C16.2969 65.2969 3.79688 52.9688 3.79688 31
C3.79688 3.95312 15.0938 -2 23.0938 -2
C32.7969 -2 42 6.67188 42 20.0469
C42 32.5156 33.9062 41.5938 23.7031 41.5938
C17.5938 41.5938 13.0938 37.6094 10.5938 30.625
z

M23.0938 0.390625
C10.7969 0.390625 10.7969 18.75 10.7969 22.4375
C10.7969 29.625 14.2031 40 23.5 40
C25.2031 40 30.0938 40 33.4062 33.125
C35.2031 29.2188 35.2031 25.1406 35.2031 20.1406
C35.2031 14.75 35.2031 10.7812 33.0938 6.78125
C30.9062 2.67188 27.7031 0.390625 23.0938 0.390625" id="CMR17-54"/>
      </defs>
      <g transform="translate(386.246091444 648.196640528)scale(0.2 -0.2)">
       <use transform="scale(0.9962640099626402)" xlink:href="#CMR17-48"/>
       <use transform="translate(45.69047711706103 0.0)scale(0.9962640099626402)" xlink:href="#CMMI12-58"/>
       <use transform="translate(72.78765420688046 0.0)scale(0.9962640099626402)" xlink:href="#CMR17-48"/>
       <use transform="translate(118.47813132394148 0.0)scale(0.9962640099626402)" xlink:href="#CMR17-48"/>
       <use transform="translate(164.1686084410025 0.0)scale(0.9962640099626402)" xlink:href="#CMR17-54"/>
      </g>
     </g>
    </g>
    <g id="xtick_5">
     <g id="line2d_15">
      <path clip-path="url(#pd91b92aa32)" d="
M500.976 630
L500.976 72" style="fill:none;stroke:#000000;stroke-dasharray:1.000000,3.000000;stroke-dashoffset:0.0;stroke-width:0.5;"/>
     </g>
     <g id="line2d_16">
      <g>
       <use style="stroke:#000000;stroke-width:0.5;" x="500.976" xlink:href="#mc7db9fdffb" y="630.0"/>
      </g>
     </g>
     <g id="line2d_17">
      <g>
       <use style="stroke:#000000;stroke-width:0.5;" x="500.976" xlink:href="#m5a7d422ac3" y="72.0"/>
      </g>
     </g>
     <g id="text_5">
      <!-- $0.008$ -->
      <defs>
       <path d="
M27.2031 35.375
C33.5 38.5625 39.9062 43.3281 39.9062 50.9844
C39.9062 60.0312 31.0938 65.2969 23 65.2969
C13.9062 65.2969 5.90625 58.7344 5.90625 49.6875
C5.90625 47.2031 6.5 42.9219 10.4062 39.1406
C11.4062 38.1562 15.5938 35.1719 18.2969 33.2812
C13.7969 30.9844 3.29688 25.5312 3.29688 14.5938
C3.29688 4.35938 13.0938 -2 22.7969 -2
C33.5 -2 42.5 5.65625 42.5 15.7969
C42.5 24.8438 36.4062 29.0312 32.4062 31.7031
z

M14.0938 44.125
C13.2969 44.625 9.29688 47.7031 9.29688 52.375
C9.29688 58.4375 15.5938 63 22.7969 63
C30.7031 63 36.5 57.4531 36.5 50.9844
C36.5 41.7344 26.0938 36.4688 25.5938 36.4688
C25.5 36.4688 25.4062 36.4688 24.5938 37.0781
z

M32.5 23.7344
C34 22.6406 38.7969 19.375 38.7969 13.2969
C38.7969 5.95312 31.4062 0.390625 23 0.390625
C13.9062 0.390625 7 6.84375 7 14.6875
C7 22.5469 13.0938 29.0938 20 32.1875
z
" id="CMR17-56"/>
      </defs>
      <g transform="translate(479.990091444 648.196640528)scale(0.2 -0.2)">
       <use transform="scale(0.9962640099626402)" xlink:href="#CMR17-48"/>
       <use transform="translate(45.69047711706103 0.0)scale(0.9962640099626402)" xlink:href="#CMMI12-58"/>
       <use transform="translate(72.78765420688046 0.0)scale(0.9962640099626402)" xlink:href="#CMR17-48"/>
       <use transform="translate(118.47813132394148 0.0)scale(0.9962640099626402)" xlink:href="#CMR17-48"/>
       <use transform="translate(164.1686084410025 0.0)scale(0.9962640099626402)" xlink:href="#CMR17-56"/>
      </g>
     </g>
    </g>
    <g id="xtick_6">
     <g id="line2d_18">
      <path clip-path="url(#pd91b92aa32)" d="
M594.72 630
L594.72 72" style="fill:none;stroke:#000000;stroke-dasharray:1.000000,3.000000;stroke-dashoffset:0.0;stroke-width:0.5;"/>
     </g>
     <g id="line2d_19">
      <g>
       <use style="stroke:#000000;stroke-width:0.5;" x="594.72" xlink:href="#mc7db9fdffb" y="630.0"/>
      </g>
     </g>
     <g id="line2d_20">
      <g>
       <use style="stroke:#000000;stroke-width:0.5;" x="594.72" xlink:href="#m5a7d422ac3" y="72.0"/>
      </g>
     </g>
     <g id="text_6">
      <!-- $0.010$ -->
      <defs>
       <path d="
M26.5938 63.3125
C26.5938 65.4062 26.5 65.5 25.0938 65.5
C21.2031 61.1875 15.2969 59.7969 9.70312 59.7969
C9.40625 59.7969 8.90625 59.7969 8.79688 59.5
C8.70312 59.2969 8.70312 59.0938 8.70312 57
C11.7969 57 17 57.5938 21 59.9844
L21 7.20312
C21 3.6875 20.7969 2.5 12.2031 2.5
L9.20312 2.5
L9.20312 0
C14 0 19 0 23.7969 0
C28.5938 0 33.5938 0 38.4062 0
L38.4062 2.5
L35.4062 2.5
C26.7969 2.5 26.5938 3.59375 26.5938 7.15625
z
" id="CMR17-49"/>
      </defs>
      <g transform="translate(573.734091444 648.196640528)scale(0.2 -0.2)">
       <use transform="scale(0.9962640099626402)" xlink:href="#CMR17-48"/>
       <use transform="translate(45.69047711706103 0.0)scale(0.9962640099626402)" xlink:href="#CMMI12-58"/>
       <use transform="translate(72.78765420688046 0.0)scale(0.9962640099626402)" xlink:href="#CMR17-48"/>
       <use transform="translate(118.47813132394148 0.0)scale(0.9962640099626402)" xlink:href="#CMR17-49"/>
       <use transform="translate(164.1686084410025 0.0)scale(0.9962640099626402)" xlink:href="#CMR17-48"/>
      </g>
     </g>
    </g>
    <g id="xtick_7">
     <g id="line2d_21">
      <path clip-path="url(#pd91b92aa32)" d="
M688.464 630
L688.464 72" style="fill:none;stroke:#000000;stroke-dasharray:1.000000,3.000000;stroke-dashoffset:0.0;stroke-width:0.5;"/>
     </g>
     <g id="line2d_22">
      <g>
       <use style="stroke:#000000;stroke-width:0.5;" x="688.464" xlink:href="#mc7db9fdffb" y="630.0"/>
      </g>
     </g>
     <g id="line2d_23">
      <g>
       <use style="stroke:#000000;stroke-width:0.5;" x="688.464" xlink:href="#m5a7d422ac3" y="72.0"/>
      </g>
     </g>
     <g id="text_7">
      <!-- $0.012$ -->
      <g transform="translate(667.478091444 648.196640528)scale(0.2 -0.2)">
       <use transform="scale(0.9962640099626402)" xlink:href="#CMR17-48"/>
       <use transform="translate(45.69047711706103 0.0)scale(0.9962640099626402)" xlink:href="#CMMI12-58"/>
       <use transform="translate(72.78765420688046 0.0)scale(0.9962640099626402)" xlink:href="#CMR17-48"/>
       <use transform="translate(118.47813132394148 0.0)scale(0.9962640099626402)" xlink:href="#CMR17-49"/>
       <use transform="translate(164.1686084410025 0.0)scale(0.9962640099626402)" xlink:href="#CMR17-50"/>
      </g>
     </g>
    </g>
    <g id="xtick_8">
     <g id="line2d_24">
      <path clip-path="url(#pd91b92aa32)" d="
M782.208 630
L782.208 72" style="fill:none;stroke:#000000;stroke-dasharray:1.000000,3.000000;stroke-dashoffset:0.0;stroke-width:0.5;"/>
     </g>
     <g id="line2d_25">
      <g>
       <use style="stroke:#000000;stroke-width:0.5;" x="782.208" xlink:href="#mc7db9fdffb" y="630.0"/>
      </g>
     </g>
     <g id="line2d_26">
      <g>
       <use style="stroke:#000000;stroke-width:0.5;" x="782.208" xlink:href="#m5a7d422ac3" y="72.0"/>
      </g>
     </g>
     <g id="text_8">
      <!-- $0.014$ -->
      <g transform="translate(761.222091444 648.196640528)scale(0.2 -0.2)">
       <use transform="scale(0.9962640099626402)" xlink:href="#CMR17-48"/>
       <use transform="translate(45.69047711706103 0.0)scale(0.9962640099626402)" xlink:href="#CMMI12-58"/>
       <use transform="translate(72.78765420688046 0.0)scale(0.9962640099626402)" xlink:href="#CMR17-48"/>
       <use transform="translate(118.47813132394148 0.0)scale(0.9962640099626402)" xlink:href="#CMR17-49"/>
       <use transform="translate(164.1686084410025 0.0)scale(0.9962640099626402)" xlink:href="#CMR17-52"/>
      </g>
     </g>
    </g>
    <g id="xtick_9">
     <g id="line2d_27">
      <path clip-path="url(#pd91b92aa32)" d="
M875.952 630
L875.952 72" style="fill:none;stroke:#000000;stroke-dasharray:1.000000,3.000000;stroke-dashoffset:0.0;stroke-width:0.5;"/>
     </g>
     <g id="line2d_28">
      <g>
       <use style="stroke:#000000;stroke-width:0.5;" x="875.952" xlink:href="#mc7db9fdffb" y="630.0"/>
      </g>
     </g>
     <g id="line2d_29">
      <g>
       <use style="stroke:#000000;stroke-width:0.5;" x="875.952" xlink:href="#m5a7d422ac3" y="72.0"/>
      </g>
     </g>
     <g id="text_9">
      <!-- $0.016$ -->
      <g transform="translate(854.966091444 648.196640528)scale(0.2 -0.2)">
       <use transform="scale(0.9962640099626402)" xlink:href="#CMR17-48"/>
       <use transform="translate(45.69047711706103 0.0)scale(0.9962640099626402)" xlink:href="#CMMI12-58"/>
       <use transform="translate(72.78765420688046 0.0)scale(0.9962640099626402)" xlink:href="#CMR17-48"/>
       <use transform="translate(118.47813132394148 0.0)scale(0.9962640099626402)" xlink:href="#CMR17-49"/>
       <use transform="translate(164.1686084410025 0.0)scale(0.9962640099626402)" xlink:href="#CMR17-54"/>
      </g>
     </g>
    </g>
    <g id="text_10">
     <!-- Tiempo -->
     <defs>
      <path d="
M51.2969 24
C51.2969 31.875 50.7031 36.5938 49.2031 40.4219
C45.7969 48.875 37.7969 54 28 54
C13.4062 54 4 42.8438 4 25.7031
C4 8.54688 13.0938 -2 27.7969 -2
C39.7969 -2 48.0938 4.875 50.2031 16.375
L41.7969 16.375
C39.5 9.35938 34.7969 5.70312 28.0938 5.70312
C22.7969 5.70312 18.2969 8.14062 15.5 12.6094
C13.5 15.6562 12.7969 18.7188 12.7031 24
z

M12.9062 30.8125
C13.5938 40.1875 19.5 46.2812 27.9062 46.2812
C36.0938 46.2812 42.4062 39.7031 42.4062 31.4062
C42.4062 31.2031 42.4062 31.0156 42.2969 30.8125
z
" id="Nimbus_Sans_L_Regular-101"/>
      <path d="
M7 52.4844
L7 0
L15.4062 0
L15.4062 32.9531
C15.4062 40.5781 20.9062 46.6875 27.7031 46.6875
C33.9062 46.6875 37.4062 42.875 37.4062 36.1562
L37.4062 0
L45.7969 0
L45.7969 32.9531
C45.7969 40.5781 51.2969 46.6875 58.0938 46.6875
C64.2031 46.6875 67.7969 42.7812 67.7969 36.1562
L67.7969 0
L76.2031 0
L76.2031 39.375
C76.2031 48.7812 70.7969 54 61 54
C54 54 49.7969 51.8906 44.9062 45.9844
C41.7969 51.5938 37.5938 54 30.7969 54
C23.7969 54 19.2031 51.3906 14.7031 45.0781
L14.7031 52.4844
z
" id="Nimbus_Sans_L_Regular-109"/>
      <path d="
M15 52.4844
L6.70312 52.4844
L6.70312 0
L15 0
z

M15 73
L6.59375 73
L6.59375 62.4844
L15 62.4844
z
" id="Nimbus_Sans_L_Regular-105"/>
      <path d="
M27.2031 54
C12.5 54 3.59375 43.5312 3.59375 26
C3.59375 8.45312 12.4062 -2 27.2969 -2
C42 -2 51 8.45312 51 25.5938
C51 43.6406 42.2969 54 27.2031 54
M27.2969 46.2812
C36.7031 46.2812 42.2969 38.625 42.2969 25.7031
C42.2969 13.4531 36.5 5.70312 27.2969 5.70312
C18 5.70312 12.2969 13.3594 12.2969 26
C12.2969 38.5312 18 46.2812 27.2969 46.2812" id="Nimbus_Sans_L_Regular-111"/>
      <path d="
M35.4062 64.7812
L59.2969 64.7812
L59.2969 73
L2.09375 73
L2.09375 64.7812
L26.0938 64.7812
L26.0938 -0.21875
L35.4062 -0.21875
z
" id="Nimbus_Sans_L_Regular-84"/>
      <path d="
M5.40625 -22
L13.7969 -22
L13.7969 5
C18.2031 -0.421875 23.0938 -2.8125 29.9062 -2.8125
C43.4062 -2.8125 52.2969 8.15625 52.2969 24.9844
C52.2969 42.7188 43.7031 53.8125 29.7969 53.8125
C22.7031 53.8125 17 50.5938 13.0938 44.3906
L13.0938 52.3281
L5.40625 52.3281
z

M28.4062 46
C37.5938 46 43.5938 37.8125 43.5938 25.1875
C43.5938 13.1719 37.5 5 28.4062 5
C19.5938 5 13.7969 13.0781 13.7969 25.4844
C13.7969 37.9219 19.5938 46 28.4062 46" id="Nimbus_Sans_L_Regular-112"/>
     </defs>
     <g transform="translate(483.384827587 671.637253853)scale(0.2 -0.2)">
      <use transform="scale(0.9962640099626402)" xlink:href="#Nimbus_Sans_L_Regular-84"/>
      <use transform="translate(60.871630676953615 0.0)scale(0.9962640099626402)" xlink:href="#Nimbus_Sans_L_Regular-105"/>
      <use transform="translate(82.98841502568494 0.0)scale(0.9962640099626402)" xlink:href="#Nimbus_Sans_L_Regular-101"/>
      <use transform="translate(138.38009198902554 0.0)scale(0.9962640099626402)" xlink:href="#Nimbus_Sans_L_Regular-109"/>
      <use transform="translate(221.36852221649286 0.0)scale(0.9962640099626402)" xlink:href="#Nimbus_Sans_L_Regular-112"/>
      <use transform="translate(276.7601991798335 0.0)scale(0.9962640099626402)" xlink:href="#Nimbus_Sans_L_Regular-111"/>
     </g>
    </g>
   </g>
   <g id="matplotlib.axis_2">
    <g id="ytick_1">
     <g id="line2d_30">
      <path clip-path="url(#pd91b92aa32)" d="
M126 625.571
L907.2 625.571" style="fill:none;stroke:#000000;stroke-dasharray:1.000000,3.000000;stroke-dashoffset:0.0;stroke-width:0.5;"/>
     </g>
     <g id="line2d_31">
      <defs>
       <path d="
M0 0
L4 0" id="md7965d1ba0" style="stroke:#000000;stroke-width:0.5;"/>
      </defs>
      <g>
       <use style="stroke:#000000;stroke-width:0.5;" x="126.0" xlink:href="#md7965d1ba0" y="625.571428571"/>
      </g>
     </g>
     <g id="line2d_32">
      <defs>
       <path d="
M0 0
L-4 0" id="md9a1c1a7cd" style="stroke:#000000;stroke-width:0.5;"/>
      </defs>
      <g>
       <use style="stroke:#000000;stroke-width:0.5;" x="907.2" xlink:href="#md9a1c1a7cd" y="625.571428571"/>
      </g>
     </g>
     <g id="text_11">
      <!-- $0$ -->
      <g transform="translate(112.861904577 630.547762437)scale(0.2 -0.2)">
       <use transform="scale(0.9962640099626402)" xlink:href="#CMR17-48"/>
      </g>
     </g>
    </g>
    <g id="ytick_2">
     <g id="line2d_33">
      <path clip-path="url(#pd91b92aa32)" d="
M126 537
L907.2 537" style="fill:none;stroke:#000000;stroke-dasharray:1.000000,3.000000;stroke-dashoffset:0.0;stroke-width:0.5;"/>
     </g>
     <g id="line2d_34">
      <g>
       <use style="stroke:#000000;stroke-width:0.5;" x="126.0" xlink:href="#md7965d1ba0" y="537.0"/>
      </g>
     </g>
     <g id="line2d_35">
      <g>
       <use style="stroke:#000000;stroke-width:0.5;" x="907.2" xlink:href="#md9a1c1a7cd" y="537.0"/>
      </g>
     </g>
     <g id="text_12">
      <!-- $2$ -->
      <g transform="translate(112.861904577 541.976333865)scale(0.2 -0.2)">
       <use transform="scale(0.9962640099626402)" xlink:href="#CMR17-50"/>
      </g>
     </g>
    </g>
    <g id="ytick_3">
     <g id="line2d_36">
      <path clip-path="url(#pd91b92aa32)" d="
M126 448.429
L907.2 448.429" style="fill:none;stroke:#000000;stroke-dasharray:1.000000,3.000000;stroke-dashoffset:0.0;stroke-width:0.5;"/>
     </g>
     <g id="line2d_37">
      <g>
       <use style="stroke:#000000;stroke-width:0.5;" x="126.0" xlink:href="#md7965d1ba0" y="448.428571429"/>
      </g>
     </g>
     <g id="line2d_38">
      <g>
       <use style="stroke:#000000;stroke-width:0.5;" x="907.2" xlink:href="#md9a1c1a7cd" y="448.428571429"/>
      </g>
     </g>
     <g id="text_13">
      <!-- $4$ -->
      <g transform="translate(112.861904577 453.404905294)scale(0.2 -0.2)">
       <use transform="scale(0.9962640099626402)" xlink:href="#CMR17-52"/>
      </g>
     </g>
    </g>
    <g id="ytick_4">
     <g id="line2d_39">
      <path clip-path="url(#pd91b92aa32)" d="
M126 359.857
L907.2 359.857" style="fill:none;stroke:#000000;stroke-dasharray:1.000000,3.000000;stroke-dashoffset:0.0;stroke-width:0.5;"/>
     </g>
     <g id="line2d_40">
      <g>
       <use style="stroke:#000000;stroke-width:0.5;" x="126.0" xlink:href="#md7965d1ba0" y="359.857142857"/>
      </g>
     </g>
     <g id="line2d_41">
      <g>
       <use style="stroke:#000000;stroke-width:0.5;" x="907.2" xlink:href="#md9a1c1a7cd" y="359.857142857"/>
      </g>
     </g>
     <g id="text_14">
      <!-- $6$ -->
      <g transform="translate(112.861904577 364.833476722)scale(0.2 -0.2)">
       <use transform="scale(0.9962640099626402)" xlink:href="#CMR17-54"/>
      </g>
     </g>
    </g>
    <g id="ytick_5">
     <g id="line2d_42">
      <path clip-path="url(#pd91b92aa32)" d="
M126 271.286
L907.2 271.286" style="fill:none;stroke:#000000;stroke-dasharray:1.000000,3.000000;stroke-dashoffset:0.0;stroke-width:0.5;"/>
     </g>
     <g id="line2d_43">
      <g>
       <use style="stroke:#000000;stroke-width:0.5;" x="126.0" xlink:href="#md7965d1ba0" y="271.285714286"/>
      </g>
     </g>
     <g id="line2d_44">
      <g>
       <use style="stroke:#000000;stroke-width:0.5;" x="907.2" xlink:href="#md9a1c1a7cd" y="271.285714286"/>
      </g>
     </g>
     <g id="text_15">
      <!-- $8$ -->
      <g transform="translate(112.861904577 276.262048151)scale(0.2 -0.2)">
       <use transform="scale(0.9962640099626402)" xlink:href="#CMR17-56"/>
      </g>
     </g>
    </g>
    <g id="ytick_6">
     <g id="line2d_45">
      <path clip-path="url(#pd91b92aa32)" d="
M126 182.714
L907.2 182.714" style="fill:none;stroke:#000000;stroke-dasharray:1.000000,3.000000;stroke-dashoffset:0.0;stroke-width:0.5;"/>
     </g>
     <g id="line2d_46">
      <g>
       <use style="stroke:#000000;stroke-width:0.5;" x="126.0" xlink:href="#md7965d1ba0" y="182.714285714"/>
      </g>
     </g>
     <g id="line2d_47">
      <g>
       <use style="stroke:#000000;stroke-width:0.5;" x="907.2" xlink:href="#md9a1c1a7cd" y="182.714285714"/>
      </g>
     </g>
     <g id="text_16">
      <!-- $10$ -->
      <g transform="translate(103.723809153 187.690619579)scale(0.2 -0.2)">
       <use transform="scale(0.9962640099626402)" xlink:href="#CMR17-49"/>
       <use transform="translate(45.69047711706103 0.0)scale(0.9962640099626402)" xlink:href="#CMR17-48"/>
      </g>
     </g>
    </g>
    <g id="ytick_7">
     <g id="line2d_48">
      <path clip-path="url(#pd91b92aa32)" d="
M126 94.1429
L907.2 94.1429" style="fill:none;stroke:#000000;stroke-dasharray:1.000000,3.000000;stroke-dashoffset:0.0;stroke-width:0.5;"/>
     </g>
     <g id="line2d_49">
      <g>
       <use style="stroke:#000000;stroke-width:0.5;" x="126.0" xlink:href="#md7965d1ba0" y="94.1428571429"/>
      </g>
     </g>
     <g id="line2d_50">
      <g>
       <use style="stroke:#000000;stroke-width:0.5;" x="907.2" xlink:href="#md9a1c1a7cd" y="94.1428571429"/>
      </g>
     </g>
     <g id="text_17">
      <!-- $12$ -->
      <g transform="translate(103.723809153 99.1191910081)scale(0.2 -0.2)">
       <use transform="scale(0.9962640099626402)" xlink:href="#CMR17-49"/>
       <use transform="translate(45.69047711706103 0.0)scale(0.9962640099626402)" xlink:href="#CMR17-50"/>
      </g>
     </g>
    </g>
    <g id="text_18">
     <!-- $V_{c}$ -->
     <defs>
      <path d="
M61.9062 56.7188
C65.2969 62.1094 68.4062 64.5 73.5 64.9062
C74.5 65 75.2969 65 75.2969 66.7344
C75.2969 67.125 75.0938 67.7031 74.2031 67.7031
C72.4062 67.7031 68.0938 67.7031 66.2969 67.7031
C63.4062 67.7031 60.4062 67.7031 57.5938 67.7031
C56.7969 67.7031 55.7969 67.7031 55.7969 65.9375
C55.7969 65.0938 56.7031 65 57.0938 65
C60.7969 64.7031 61.2031 62.9062 61.2031 61.7031
C61.2031 60.1875 59.7969 57.8906 59.7031 57.7969
L28.2969 7.98438
L21.2969 61.8125
C21.2969 65 26.5 65 27.5938 65
C29.0938 65 30 65 30 66.7656
C30 67.7031 28.9062 67.7031 28.5938 67.7031
C26.9062 67.7031 24.9062 67.7031 23.2031 67.7031
L17.5938 67.7031
C10.2969 67.7031 7.29688 67.7031 7.20312 67.7031
C6.59375 67.7031 5.40625 67.7031 5.40625 66.0156
C5.40625 65 6.09375 65 7.70312 65
C12.7969 65 13.0938 64.0938 13.4062 61.6094
L21.4062 -0.109375
C21.7031 -2.20312 21.7031 -2.5 23.0938 -2.5
C24.2969 -2.5 24.7969 -2.20312 25.7969 -0.609375
z
" id="CMMI12-86"/>
      <path d="
M39.0938 37.9844
C37.2031 37.9844 36.2969 37.9844 34.9062 36.7969
C34.2969 36.2969 33.2031 34.7969 33.2031 33.2031
C33.2031 31.2031 34.7031 30 36.5938 30
C39 30 41.7031 31.9375 41.7031 35.8125
C41.7031 40.4375 37.0938 44 30.2031 44
C17.0938 44 4 29.7344 4 15.5625
C4 6.89062 9.40625 -1 19.5938 -1
C33.2031 -1 41.7969 9.73438 41.7969 11.0469
C41.7969 11.6562 41.2031 12.1562 40.7969 12.1562
C40.5 12.1562 40.4062 12.0625 39.5 11.1562
C33.0938 2.53125 23.5938 1 19.7969 1
C12.9062 1 10.7031 6.96875 10.7031 11.9375
C10.7031 15.4375 12.4062 25.0781 16 31.8594
C18.5938 36.5312 24 41.9062 30.2969 41.9062
C31.5938 41.9062 37.0938 41.9062 39.0938 37.9844" id="CMMI12-99"/>
     </defs>
     <g transform="translate(94.4798363559 359.625764954)rotate(-90.0)scale(0.2 -0.2)">
      <use transform="translate(0.0 14.943914544092467)scale(0.9962640099626402)" xlink:href="#CMMI12-86"/>
      <use transform="translate(56.86957904440381 0.0)scale(0.6973817666173724)" xlink:href="#CMMI12-99"/>
     </g>
    </g>
   </g>
   <g id="patch_3">
    <path d="
M126 72
L907.2 72" style="fill:none;stroke:#000000;"/>
   </g>
   <g id="patch_4">
    <path d="
M126 630
L126 72" style="fill:none;stroke:#000000;"/>
   </g>
   <g id="patch_5">
    <path d="
M907.2 630
L907.2 72" style="fill:none;stroke:#000000;"/>
   </g>
   <g id="patch_6">
    <path d="
M126 630
L907.2 630" style="fill:none;stroke:#000000;"/>
   </g>
   <g id="legend_1">
    <g id="patch_7">
     <path d="
M761.817 159.457
L895.2 159.457
L895.2 84
L761.817 84
L761.817 159.457
z
" style="fill:#ffffff;stroke:#000000;"/>
    </g>
    <g id="line2d_51">
     <path d="
M778.617 102.236
L812.217 102.236" style="fill:none;stroke:#0000ff;stroke-linecap:square;"/>
    </g>
    <g id="line2d_52"/>
    <g id="text_19">
     <!-- $1\mu$ -->
     <defs>
      <path d="
M14.4062 2.20312
C16.9062 -0.09375 20.5938 -1 24 -1
C30.4062 -1 34.7969 3.29688 37.0938 6.39062
C38.0938 1.09375 42.2969 -1 45.7969 -1
C48.7969 -1 51.2031 0.796875 53 4.39062
C54.5938 7.78125 56 13.875 56 14.2656
C56 14.7656 55.5938 15.1719 55 15.1719
C54.0938 15.1719 54 14.6719 53.5938 13.1719
C52.0938 7.28125 50.2031 1 46.0938 1
C43.2031 1 43 3.59375 43 5.59375
C43 7.89062 43.9062 11.4688 44.5938 14.4688
L47.4062 25.25
C47.7969 27.1406 48.9062 31.625 49.4062 33.4219
C50 35.8281 51.0938 40.1094 51.0938 40.5156
C51.0938 42.0156 49.9062 43.0156 48.4062 43.0156
C47.5 43.0156 45.4062 42.6094 44.5938 39.6094
L37.5938 11.875
C37.0938 9.875 37.0938 9.67188 35.7969 8.07812
C34.5938 6.39062 30.7031 1 24.4062 1
C18.7969 1 17 5.09375 17 9.78125
C17 12.6719 17.9062 16.1719 18.2969 17.8594
L22.7969 35.8281
C23.2969 37.7188 24.0938 40.9062 24.0938 41.5156
C24.0938 43.1094 22.7969 44 21.5 44
C20.5938 44 18.4062 43.7031 17.5938 40.5156
L3.09375 -17.3125
C3 -17.8125 2.79688 -18.4062 2.79688 -19
C2.79688 -20.5 4 -21.5 5.5 -21.5
C8.40625 -21.5 9 -19.2031 9.70312 -16.3906
z
" id="CMMI12-22"/>
     </defs>
     <g transform="translate(838.616915327 110.635968633)scale(0.24 -0.24)">
      <use transform="scale(0.9962640099626402)" xlink:href="#CMR17-49"/>
      <use transform="translate(45.69047711706103 0.0)scale(0.9962640099626402)" xlink:href="#CMMI12-22"/>
     </g>
    </g>
    <g id="line2d_53">
     <path d="
M778.617 136.365
L812.217 136.365" style="fill:none;stroke:#008000;stroke-linecap:square;"/>
    </g>
    <g id="line2d_54"/>
    <g id="text_20">
     <!-- $100\mu$ -->
     <g transform="translate(838.616915327 144.764701583)scale(0.24 -0.24)">
      <use transform="scale(0.9962640099626402)" xlink:href="#CMR17-49"/>
      <use transform="translate(45.69047711706103 0.0)scale(0.9962640099626402)" xlink:href="#CMR17-48"/>
      <use transform="translate(91.38095423412206 0.0)scale(0.9962640099626402)" xlink:href="#CMR17-48"/>
      <use transform="translate(137.07143135118307 0.0)scale(0.9962640099626402)" xlink:href="#CMMI12-22"/>
     </g>
    </g>
   </g>
  </g>
 </g>
 <defs>
  <clipPath id="pd91b92aa32">
   <rect height="558.0" width="781.2" x="126.0" y="72.0"/>
  </clipPath>
 </defs>
</svg>
